<?xml version="1.0" encoding="utf-8"?>
<!-- Generator: Adobe Illustrator 19.1.0, SVG Export Plug-In . SVG Version: 6.00 Build 0)  -->
<svg version="1.1" id="Layer_1" xmlns="http://www.w3.org/2000/svg" xmlns:xlink="http://www.w3.org/1999/xlink" x="0px" y="0px"
	 viewBox="0 0 710.3 122.9" style="enable-background:new 0 0 710.3 122.9;" xml:space="preserve">
<style type="text/css">
	.st0{fill:#FFFFFF;}
	.st1{fill:#50D2C2;}
	.st2{fill:none;stroke:#000000;stroke-width:0.25;}
	.st3{fill:#8C88FF;}
	.st4{fill:none;stroke:#50D2C2;stroke-width:9;stroke-miterlimit:10;}
	.st5{fill:none;stroke:#50D2C2;stroke-width:10;stroke-miterlimit:10;}
	.st6{fill:none;stroke:#000000;stroke-width:10;stroke-linecap:round;stroke-linejoin:round;stroke-miterlimit:10;}
	.st7{fill:none;stroke:#FFFFFF;stroke-width:10;stroke-linecap:round;stroke-linejoin:round;stroke-miterlimit:10;}
	.st8{fill:none;stroke:#000000;stroke-width:5;stroke-linecap:round;stroke-linejoin:round;stroke-miterlimit:10;}
	.st9{fill:none;stroke:#000000;stroke-width:7;stroke-linecap:round;stroke-linejoin:round;stroke-miterlimit:10;}
	.st10{fill:none;stroke:#50D2C2;stroke-width:10;stroke-linecap:round;stroke-linejoin:round;stroke-miterlimit:10;}
	.st11{fill:none;stroke:#50D2C2;stroke-width:7;stroke-linecap:round;stroke-linejoin:round;stroke-miterlimit:10;}
	.st12{fill:none;stroke:#000000;stroke-width:7.3065;stroke-linecap:round;stroke-linejoin:round;stroke-miterlimit:10;}
	.st13{fill:#FF4D70;}
	.st14{fill:#003273;}
	.st15{fill:#161245;}
	.st16{fill:#FFB258;}
	.st17{fill:none;stroke:#FFFFFF;stroke-width:9;stroke-linecap:round;stroke-linejoin:round;stroke-miterlimit:10;}
	.st18{fill:#001A3F;}
	.st19{fill:url(#SVGID_1_);}
	.st20{fill:url(#SVGID_2_);}
	.st21{fill:url(#SVGID_3_);}
	.st22{fill:url(#SVGID_4_);}
	.st23{fill:url(#SVGID_5_);}
	.st24{fill:url(#SVGID_6_);}
	.st25{fill:url(#SVGID_7_);}
	.st26{fill:url(#SVGID_8_);}
	.st27{fill:url(#SVGID_9_);}
	.st28{fill:url(#SVGID_10_);}
	.st29{fill:url(#SVGID_11_);}
	.st30{fill:url(#SVGID_12_);}
	.st31{fill:url(#SVGID_13_);}
	.st32{fill:#2C2A64;}
	.st33{fill:none;stroke:#50D2C2;stroke-miterlimit:10;}
	.st34{fill:none;stroke:#003273;stroke-width:5;stroke-miterlimit:10;}
	.st35{fill:none;stroke:#FFB258;stroke-width:5;stroke-miterlimit:10;}
	.st36{clip-path:url(#SVGID_15_);}
	.st37{clip-path:url(#SVGID_17_);}
	.st38{clip-path:url(#SVGID_19_);}
	.st39{clip-path:url(#SVGID_21_);}
</style>
<g>
	<g>
		<path class="st0" d="M43.9,4.5L43.9,4.5C21.5,4.6,3.5,22.7,3.5,45c0,30.5,40.4,73.5,40.4,73.5c0,0,40.4-42.9,40.4-73.5
			C84.3,22.7,66.2,4.6,43.9,4.5z M44.9,64.1c-8.3,0-13.5-5.5-13.5-13.8c0-8.8,6-14.4,14-14.4c7.4,0,10.3,3.8,10.3,6.8
			c0,2.4-1.4,4.2-3.8,4.2c-2.6,0-4-1.5-4-3.6c0-1.5,1-2.8,1.8-3.3c-0.6-0.9-2.1-1.8-4.1-1.8c-4.1,0-6.8,3.6-6.8,11.3
			c0,6.5,2.9,11,8.6,11c3,0,5.5-1.6,7.5-4.1l1.5,1.2C53.8,61.4,50.4,64.1,44.9,64.1z"/>
	</g>
</g>
<g>
	<path class="st0" d="M104.3,74.9c0-21.6,14.8-35.6,34.5-35.6c18.2,0,25.3,9.3,25.3,16.6c0,5.9-3.5,10.3-9.3,10.3
		c-6.5,0-9.8-3.8-9.8-8.8c0-3.6,2.5-6.9,4.3-8.1c-1.4-2.3-5.2-4.5-10-4.5c-10,0-16.8,9-16.8,27.8c0,16.1,7.1,27.1,21.1,27.1
		c7.4,0,13.6-3.9,18.5-10l3.6,3c-6.4,9.7-14.8,16.2-28.4,16.2C116.9,108.9,104.3,95.3,104.3,74.9z"/>
	<path class="st0" d="M162.6,102.2c8.3-0.1,10.1-1.6,10.1-5.1V20c0-4.3-2.2-6.9-10.7-7.1V7.7L190,6.5v90.6c0,3.5,1.7,4.9,10.1,5.1
		v5.2h-37.5V102.2z"/>
	<path class="st0" d="M205,87.6v-35c0-4.5-1.9-6.2-10.3-6.5v-5.2l27.5-0.6v42.9c0,10,3.9,13.9,12,13.9c5.5,0,8.8-1.6,12.9-3.9V52.6
		c0-4.5-2.3-6.1-10.3-6.4V41l27.5-0.7v56.6c0,3.9,2,5.1,10.3,5.4v5.2h-27.2v-9.6c-6.8,6.1-14.5,10.7-23.7,10.7
		C212.1,108.6,205,101.1,205,87.6z"/>
	<path class="st0" d="M279.4,96.4V20c0-4.3-2-6.9-10.7-7.1V7.7l27.9-1.2v41.3c5.9-5.1,12.3-8.4,21.1-8.4c17.5,0,27.1,14,27.1,32.6
		c0,20.6-12.2,36.6-33,36.6c-6.8,0-14.9-2.2-21.3-6.7l-7.7,8h-3.8L279.4,96.4z M326.3,73.4c0-16.1-6.8-25.2-16.6-25.2
		c-5.1,0-9,2-13,5.1v38.8c3.2,7.2,8,10.9,14,10.9C321.6,103,326.3,93,326.3,73.4z"/>
	<path class="st0" d="M342.6,102.2c8.3-0.1,10.1-1.6,10.1-5.1V20c0-4.3-2-6.9-10.7-7.1V7.7l27.9-1.2V51c7.5-5.8,16.1-11.2,25.5-11.2
		c11.3,0,17.2,7.4,17.2,20.8v36.5c0,3.5,1.7,4.9,10.1,5.1v5.2h-35.6v-5.2c6.1-0.1,8.3-1.6,8.3-5.1V65c0-10-3.8-13.9-11.4-13.9
		c-5.4,0-10.1,2.3-14,4.8v41.3c0,3.5,2,4.9,8.3,5.1v5.2h-35.6V102.2z"/>
	<path class="st0" d="M419.4,74.1c0-21,13.3-34.9,34.3-34.9c21.6,0,34,13.3,34,34.3c0,21.1-13.2,35.3-34,35.3
		C431.8,108.9,419.4,95.3,419.4,74.1z M469.2,73.9c0-20-5.5-29-16.2-29c-10.6,0-15.1,9-15.1,29c0,20.1,5.6,29.2,16.4,29.2
		C464.7,103.1,469.2,94,469.2,73.9z"/>
	<path class="st0" d="M531.4,54.6c-2.3-6.5-4.1-8.4-9.6-9v-5.1h32.9v5.1c-5.9,0.4-8.3,1.6-8.3,4.1c0,1,0.4,2,0.7,3.2l12.2,36h0.7
		l10.6-29.8c1-3,1.6-5.4,1.6-6.9c0-3.6-2.5-5.5-8.7-6.5v-5.1h27.8v5.1c-7.1,1-9.7,4.5-12,11l-18.5,51.7H550l-13-37.5l-15.1,37.5
		h-11.1l-20.1-53.7c-2.3-6.4-4.2-8.1-10.9-9v-5.1h33.7v5.1c-4.9,0.3-6.8,1.4-6.8,3.8c0,0.9,0.4,2.2,0.9,3.5L521,89.2h0.9l11.7-28.5
		L531.4,54.6z"/>
	<path class="st0" d="M588.9,85.7h5.5c6.4,10.7,14.6,16.9,22.3,16.9c7.5,0,11-4.1,11-9c0-6.2-4.8-9.1-17.7-12.9
		c-15.1-4.3-20.8-9.3-20.8-19.3c0-13.3,10.6-22.2,26.1-22.2c4.9,0,11,1.9,14.2,4.1l3.2-4.1h5.2v20.4h-5.6
		c-5.6-8.7-11.6-14.5-18.5-14.5c-6.1,0-10.4,3.6-10.4,9c0,5.9,5.4,8.3,15.6,11c14.9,3.9,22.3,9.3,22.3,20.4
		c0,12.9-9.8,22.9-25.6,22.9c-5.4,0-13.2-2.2-16.9-4.5l-4.3,4.5h-5.4V85.7z"/>
	<path class="st0" d="M644.5,74.9c0-21.4,13.3-35.6,33.3-35.6c20.1,0,29.8,15.9,28.7,34h-43.7v0.6v0.3c0,15.5,6.9,26.2,20.6,26.2
		c7.7,0,14.2-4.6,19.8-11.9l3.6,3c-6.1,9.8-14.5,17.4-29,17.4C656.4,108.9,644.5,95.6,644.5,74.9z M662.9,68.1l25.8-0.4
		c1.4-12.5-2.6-22.7-11.9-22.7C668.8,44.9,663.9,52.6,662.9,68.1z"/>
</g>
</svg>
