<?xml version="1.0" encoding="utf-8"?>
<!-- Generator: Adobe Illustrator 19.1.0, SVG Export Plug-In . SVG Version: 6.00 Build 0)  -->
<svg version="1.1" id="Layer_1" xmlns="http://www.w3.org/2000/svg" xmlns:xlink="http://www.w3.org/1999/xlink" x="0px" y="0px"
	 viewBox="0 0 611.8 308.7" style="enable-background:new 0 0 611.8 308.7;" xml:space="preserve">
<style type="text/css">
	.st0{fill:#FFFFFF;}
	.st1{fill:#50D2C2;}
	.st2{fill:none;stroke:#000000;stroke-width:0.25;}
	.st3{fill:#8C88FF;}
	.st4{fill:none;stroke:#50D2C2;stroke-width:9;stroke-miterlimit:10;}
	.st5{fill:none;stroke:#50D2C2;stroke-width:10;stroke-miterlimit:10;}
	.st6{fill:none;stroke:#000000;stroke-width:10;stroke-linecap:round;stroke-linejoin:round;stroke-miterlimit:10;}
	.st7{fill:none;stroke:#FFFFFF;stroke-width:10;stroke-linecap:round;stroke-linejoin:round;stroke-miterlimit:10;}
	.st8{fill:none;stroke:#000000;stroke-width:5;stroke-linecap:round;stroke-linejoin:round;stroke-miterlimit:10;}
	.st9{fill:none;stroke:#000000;stroke-width:7;stroke-linecap:round;stroke-linejoin:round;stroke-miterlimit:10;}
	.st10{fill:none;stroke:#50D2C2;stroke-width:10;stroke-linecap:round;stroke-linejoin:round;stroke-miterlimit:10;}
	.st11{fill:none;stroke:#50D2C2;stroke-width:7;stroke-linecap:round;stroke-linejoin:round;stroke-miterlimit:10;}
	.st12{fill:none;stroke:#000000;stroke-width:7.3065;stroke-linecap:round;stroke-linejoin:round;stroke-miterlimit:10;}
	.st13{fill:#FF4D70;}
	.st14{fill:#003273;}
	.st15{fill:#161245;}
	.st16{fill:#FFB258;}
	.st17{fill:none;stroke:#FFFFFF;stroke-width:9;stroke-linecap:round;stroke-linejoin:round;stroke-miterlimit:10;}
	.st18{fill:#001A3F;}
	.st19{fill:url(#SVGID_1_);}
	.st20{fill:url(#SVGID_2_);}
	.st21{fill:url(#SVGID_3_);}
	.st22{fill:url(#SVGID_4_);}
	.st23{fill:url(#SVGID_5_);}
	.st24{fill:url(#SVGID_6_);}
	.st25{fill:url(#SVGID_7_);}
	.st26{fill:url(#SVGID_8_);}
	.st27{fill:url(#SVGID_9_);}
	.st28{fill:url(#SVGID_10_);}
	.st29{fill:url(#SVGID_11_);}
	.st30{fill:url(#SVGID_12_);}
	.st31{fill:url(#SVGID_13_);}
	.st32{fill:#2C2A64;}
	.st33{fill:none;stroke:#50D2C2;stroke-miterlimit:10;}
	.st34{fill:none;stroke:#003273;stroke-width:5;stroke-miterlimit:10;}
	.st35{fill:none;stroke:#FFB258;stroke-width:5;stroke-miterlimit:10;}
	.st36{clip-path:url(#SVGID_15_);}
	.st37{clip-path:url(#SVGID_17_);}
	.st38{clip-path:url(#SVGID_19_);}
	.st39{clip-path:url(#SVGID_21_);}
</style>
<g>
	<path class="st1" d="M305.8,19.5h-0.1c-32.1,0.2-58.1,26.2-58.1,58.3c0,44,58.2,105.8,58.2,105.8c0,0,58.2-61.9,58.2-105.8
		C364,45.7,337.9,19.7,305.8,19.5z"/>
</g>
<path class="st0" d="M287.8,85.5c0-12.6,8.6-20.8,20.1-20.8c10.7,0,14.8,5.4,14.8,9.7c0,3.5-2,6-5.4,6c-3.8,0-5.8-2.2-5.8-5.2
	c0-2.1,1.4-4.1,2.5-4.7c-0.8-1.4-3-2.6-5.8-2.6c-5.8,0-9.8,5.2-9.8,16.2c0,9.4,4.1,15.8,12.4,15.8c4.3,0,8-2.3,10.8-5.8l2.1,1.8
	c-3.7,5.7-8.6,9.5-16.6,9.5C295.2,105.3,287.8,97.4,287.8,85.5z"/>
<g>
	<path class="st13" d="M4.6,273.7c0-21.6,14.8-35.6,34.5-35.6c18.2,0,25.3,9.3,25.3,16.6c0,5.9-3.5,10.3-9.3,10.3
		c-6.5,0-9.8-3.8-9.8-8.8c0-3.6,2.5-6.9,4.3-8.1c-1.4-2.3-5.2-4.5-10-4.5c-10,0-16.8,9-16.8,27.8c0,16.1,7.1,27.1,21.1,27.1
		c7.4,0,13.6-3.9,18.5-10l3.6,3c-6.4,9.7-14.8,16.2-28.4,16.2C17.2,307.7,4.6,294.1,4.6,273.7z"/>
	<path class="st13" d="M62.9,301.1c8.3-0.1,10.1-1.6,10.1-5.1v-77.2c0-4.3-2.2-6.9-10.7-7.1v-5.2l27.9-1.2V296
		c0,3.5,1.7,4.9,10.1,5.1v5.2H62.9V301.1z"/>
	<path class="st13" d="M105.3,286.4v-35c0-4.5-1.9-6.2-10.3-6.5v-5.2l27.5-0.6V282c0,10,3.9,13.9,12,13.9c5.5,0,8.8-1.6,12.9-3.9
		v-40.5c0-4.5-2.3-6.1-10.3-6.4v-5.2l27.5-0.7v56.6c0,3.9,2,5.1,10.3,5.4v5.2h-27.2v-9.6c-6.8,6.1-14.5,10.7-23.7,10.7
		C112.4,307.4,105.3,299.9,105.3,286.4z"/>
	<path class="st13" d="M179.7,295.3v-76.4c0-4.3-2-6.9-10.7-7.1v-5.2l27.9-1.2v41.3c5.9-5.1,12.3-8.4,21.1-8.4
		c17.5,0,27.1,14,27.1,32.6c0,20.6-12.2,36.6-33,36.6c-6.8,0-14.9-2.2-21.3-6.7l-7.7,8h-3.8L179.7,295.3z M226.6,272.3
		c0-16.1-6.8-25.2-16.6-25.2c-5.1,0-9,2-13,5.1v38.8c3.2,7.2,8,10.9,14,10.9C221.9,301.8,226.6,291.8,226.6,272.3z"/>
	<path class="st13" d="M242.9,301.1c8.3-0.1,10.1-1.6,10.1-5.1v-77.2c0-4.3-2-6.9-10.7-7.1v-5.2l27.9-1.2v44.4
		c7.5-5.8,16.1-11.2,25.5-11.2c11.3,0,17.2,7.4,17.2,20.8V296c0,3.5,1.7,4.9,10.1,5.1v5.2h-35.6v-5.2c6.1-0.1,8.3-1.6,8.3-5.1v-32.1
		c0-10-3.8-13.9-11.4-13.9c-5.4,0-10.1,2.3-14,4.8V296c0,3.5,2,4.9,8.3,5.1v5.2h-35.6V301.1z"/>
	<path class="st13" d="M319.7,273c0-21,13.3-34.9,34.3-34.9c21.6,0,34,13.3,34,34.3c0,21.1-13.2,35.3-34,35.3
		C332.1,307.7,319.7,294.1,319.7,273z M369.5,272.7c0-20-5.5-29-16.2-29c-10.6,0-15.1,9-15.1,29c0,20.1,5.6,29.2,16.4,29.2
		C365,301.9,369.5,292.8,369.5,272.7z"/>
	<path class="st13" d="M431.7,253.4c-2.3-6.5-4.1-8.4-9.6-9v-5.1h32.9v5.1c-5.9,0.4-8.3,1.6-8.3,4.1c0,1,0.4,2,0.7,3.2l12.2,36h0.7
		l10.6-29.8c1-3,1.6-5.4,1.6-6.9c0-3.6-2.5-5.5-8.7-6.5v-5.1h27.8v5.1c-7.1,1-9.7,4.5-12,11l-18.5,51.7h-10.9l-13-37.5l-15.1,37.5
		H411l-20.1-53.7c-2.3-6.4-4.2-8.1-10.9-9v-5.1h33.7v5.1c-4.9,0.3-6.8,1.4-6.8,3.8c0,0.9,0.4,2.2,0.9,3.5l13.5,36.3h0.9l11.7-28.5
		L431.7,253.4z"/>
	<path class="st13" d="M489.2,284.6h5.5c6.4,10.7,14.6,16.9,22.3,16.9c7.5,0,11-4.1,11-9c0-6.2-4.8-9.1-17.7-12.9
		c-15.1-4.3-20.8-9.3-20.8-19.3c0-13.3,10.6-22.2,26.1-22.2c4.9,0,11,1.9,14.2,4.1l3.2-4.1h5.2v20.4h-5.6
		c-5.6-8.7-11.6-14.5-18.5-14.5c-6.1,0-10.4,3.6-10.4,9c0,5.9,5.4,8.3,15.6,11c14.9,3.9,22.3,9.3,22.3,20.4
		c0,12.9-9.8,22.9-25.6,22.9c-5.4,0-13.2-2.2-16.9-4.5l-4.3,4.5h-5.4V284.6z"/>
	<path class="st13" d="M544.8,273.7c0-21.4,13.3-35.6,33.3-35.6c20.1,0,29.8,15.9,28.7,34h-43.7v0.6v0.3c0,15.5,6.9,26.2,20.6,26.2
		c7.7,0,14.2-4.6,19.8-11.9l3.6,3c-6.1,9.8-14.5,17.4-29,17.4C556.7,307.7,544.8,294.4,544.8,273.7z M563.2,266.9l25.8-0.4
		c1.4-12.5-2.6-22.7-11.9-22.7C569.1,243.7,564.2,251.4,563.2,266.9z"/>
</g>
</svg>
