<?xml version="1.0" encoding="utf-8"?>
<!-- Generator: Adobe Illustrator 19.1.0, SVG Export Plug-In . SVG Version: 6.00 Build 0)  -->
<svg version="1.1" id="Layer_1" xmlns="http://www.w3.org/2000/svg" xmlns:xlink="http://www.w3.org/1999/xlink" x="0px" y="0px"
	 viewBox="0 0 181.1 181.1" style="enable-background:new 0 0 181.1 181.1;" xml:space="preserve">
<style type="text/css">
	.st0{fill:#FFFFFF;}
	.st1{fill:#50D2C2;}
	.st2{fill:none;stroke:#000000;stroke-width:0.25;}
	.st3{fill:#8C88FF;}
	.st4{fill:none;stroke:#50D2C2;stroke-width:9;stroke-miterlimit:10;}
	.st5{fill:none;stroke:#50D2C2;stroke-width:10;stroke-miterlimit:10;}
	.st6{fill:none;stroke:#000000;stroke-width:10;stroke-linecap:round;stroke-linejoin:round;stroke-miterlimit:10;}
	.st7{fill:none;stroke:#FFFFFF;stroke-width:10;stroke-linecap:round;stroke-linejoin:round;stroke-miterlimit:10;}
	.st8{fill:none;stroke:#000000;stroke-width:5;stroke-linecap:round;stroke-linejoin:round;stroke-miterlimit:10;}
	.st9{fill:none;stroke:#000000;stroke-width:7;stroke-linecap:round;stroke-linejoin:round;stroke-miterlimit:10;}
	.st10{fill:none;stroke:#50D2C2;stroke-width:10;stroke-linecap:round;stroke-linejoin:round;stroke-miterlimit:10;}
	.st11{fill:none;stroke:#50D2C2;stroke-width:7;stroke-linecap:round;stroke-linejoin:round;stroke-miterlimit:10;}
	.st12{fill:none;stroke:#000000;stroke-width:7.3065;stroke-linecap:round;stroke-linejoin:round;stroke-miterlimit:10;}
	.st13{fill:#161245;}
	.st14{fill:#003273;}
	.st15{fill:#FF4D70;}
	.st16{fill:#FFB258;}
	.st17{fill:none;stroke:#FFFFFF;stroke-width:9;stroke-linecap:round;stroke-linejoin:round;stroke-miterlimit:10;}
	.st18{fill:#001A3F;}
	.st19{fill:url(#SVGID_1_);}
	.st20{fill:url(#SVGID_2_);}
	.st21{fill:url(#SVGID_3_);}
	.st22{fill:url(#SVGID_4_);}
	.st23{fill:url(#SVGID_5_);}
	.st24{fill:url(#SVGID_6_);}
	.st25{fill:url(#SVGID_7_);}
	.st26{fill:url(#SVGID_8_);}
	.st27{fill:url(#SVGID_9_);}
	.st28{fill:url(#SVGID_10_);}
	.st29{fill:url(#SVGID_11_);}
	.st30{fill:url(#SVGID_12_);}
	.st31{fill:url(#SVGID_13_);}
	.st32{fill:#2C2A64;}
	.st33{fill:none;stroke:#50D2C2;stroke-miterlimit:10;}
	.st34{fill:none;stroke:#003273;stroke-width:5;stroke-miterlimit:10;}
	.st35{fill:none;stroke:#FFB258;stroke-width:5;stroke-miterlimit:10;}
	.st36{clip-path:url(#SVGID_15_);}
	.st37{clip-path:url(#SVGID_17_);}
	.st38{clip-path:url(#SVGID_19_);}
	.st39{clip-path:url(#SVGID_21_);}
</style>
<circle class="st0" cx="90.5" cy="90.5" r="90.5"/>
<g>
	<defs>
		<circle id="SVGID_20_" cx="90.5" cy="90.5" r="90.5"/>
	</defs>
	<clipPath id="SVGID_1_">
		<use xlink:href="#SVGID_20_"  style="overflow:visible;"/>
	</clipPath>
	<g style="clip-path:url(#SVGID_1_);">
		<path class="st1" d="M135.5,66.5h18l0-18h-90v-9l-9-9l-9,9v9h-9l-9,9l9,9h9V196h18V66.5h18v9h-9v36h72v-36h-9V66.5z M90.5,66.5h36
			v9h-36V66.5z"/>
		<g>
			<path class="st0" d="M91.1,98.2c0-0.7-0.2-1.2-0.7-1.6c-0.5-0.4-1.3-0.8-2.5-1.1c-2.1-0.6-3.6-1.3-4.7-2.1
				c-1-0.8-1.6-1.9-1.6-3.3c0-1.4,0.6-2.6,1.8-3.5c1.2-0.9,2.7-1.3,4.6-1.3c1.9,0,3.4,0.5,4.6,1.5c1.2,1,1.8,2.2,1.7,3.7l0,0.1h-3.4
				c0-0.8-0.3-1.4-0.8-1.9c-0.5-0.5-1.3-0.7-2.2-0.7c-0.9,0-1.6,0.2-2.1,0.6c-0.5,0.4-0.8,0.9-0.8,1.6c0,0.6,0.3,1.1,0.8,1.4
				c0.5,0.4,1.5,0.8,2.8,1.2c1.9,0.5,3.3,1.2,4.3,2.1s1.5,2,1.5,3.4c0,1.5-0.6,2.6-1.7,3.5c-1.2,0.9-2.7,1.3-4.6,1.3
				c-1.9,0-3.5-0.5-4.9-1.5c-1.4-1-2.1-2.3-2-4.1l0-0.1h3.4c0,1,0.3,1.8,0.9,2.3c0.6,0.5,1.5,0.7,2.6,0.7c0.9,0,1.7-0.2,2.2-0.6
				C90.8,99.4,91.1,98.8,91.1,98.2z"/>
			<path class="st0" d="M96.6,96.2c0-1.9,0.5-3.5,1.6-4.7c1.1-1.2,2.5-1.8,4.4-1.8c1.9,0,3.4,0.6,4.5,1.8c1.1,1.2,1.6,2.8,1.6,4.7
				v0.2c0,1.9-0.5,3.5-1.6,4.7c-1.1,1.2-2.5,1.8-4.4,1.8c-1.9,0-3.4-0.6-4.4-1.8c-1.1-1.2-1.6-2.8-1.6-4.7V96.2z M100,96.4
				c0,1.2,0.2,2.1,0.6,2.8c0.4,0.7,1.1,1.1,2,1.1c0.9,0,1.5-0.4,2-1.1c0.4-0.7,0.6-1.6,0.6-2.8v-0.2c0-1.1-0.2-2.1-0.6-2.8
				c-0.4-0.7-1.1-1.1-2-1.1c-0.9,0-1.5,0.4-2,1.1c-0.4,0.7-0.6,1.6-0.6,2.8V96.4z"/>
			<path class="st0" d="M114.6,102.7h-3.5V84.2h3.5V102.7z"/>
			<path class="st0" d="M117.2,96.4c0-2,0.4-3.7,1.3-4.9c0.9-1.2,2.1-1.9,3.7-1.9c0.6,0,1.2,0.1,1.7,0.4c0.5,0.3,1,0.7,1.3,1.2v-7
				h3.5v18.5h-3l-0.3-1.6c-0.4,0.6-0.9,1-1.4,1.3c-0.5,0.3-1.2,0.5-1.9,0.5c-1.6,0-2.8-0.6-3.7-1.7c-0.9-1.2-1.3-2.7-1.3-4.6V96.4z
				 M120.6,96.6c0,1.1,0.2,2,0.6,2.7c0.4,0.6,1,1,1.8,1c0.5,0,0.9-0.1,1.3-0.3c0.4-0.2,0.7-0.5,0.9-0.9v-5.5
				c-0.2-0.4-0.5-0.7-0.9-0.9c-0.4-0.2-0.8-0.3-1.3-0.3c-0.8,0-1.5,0.4-1.9,1.1c-0.4,0.8-0.6,1.7-0.6,3V96.6z"/>
			<path class="st0" d="M135.3,97.4h-3.5v-12h3.5V97.4z M135.3,102.7h-3.5v-3h3.5V102.7z"/>
		</g>
	</g>
</g>
</svg>
